<svg width="32" height="32" viewBox="0 0 32 32" fill="none" xmlns="http://www.w3.org/2000/svg">
<path d="M28 15.0004C28 15.2656 27.8946 15.52 27.7071 15.7075C27.5196 15.895 27.2652 16.0004 27 16.0004H7.414L11.706 20.2924C11.8882 20.481 11.989 20.7336 11.9867 20.9958C11.9844 21.258 11.8792 21.5088 11.6938 21.6942C11.5084 21.8796 11.2576 21.9848 10.9954 21.9871C10.7332 21.9893 10.4806 21.8885 10.292 21.7064L4.292 15.7064C4.19947 15.6144 4.12603 15.505 4.07592 15.3845C4.02581 15.2641 4.00001 15.1349 4 15.0044V15.0004C4 14.8704 4.026 14.7404 4.078 14.6184C4.12784 14.4971 4.20126 14.387 4.294 14.2944L10.294 8.29438C10.4826 8.11223 10.7352 8.01143 10.9974 8.01371C11.2596 8.01599 11.5104 8.12116 11.6958 8.30656C11.8812 8.49197 11.9864 8.74279 11.9887 9.00498C11.991 9.26718 11.8902 9.51978 11.708 9.70838L7.414 14.0004H27C27.2652 14.0004 27.5196 14.1057 27.7071 14.2933C27.8946 14.4808 28 14.7352 28 15.0004Z" fill="#232323"/>
</svg>
