<svg width="20" height="21" viewBox="0 0 20 21" fill="none" xmlns="http://www.w3.org/2000/svg">
<path d="M15 6.99995C15 5.60756 14.4732 4.27221 13.5355 3.28764C12.5979 2.30307 11.3261 1.74995 10 1.74995C8.67392 1.74995 7.40215 2.30307 6.46447 3.28764C5.52678 4.27221 5 5.60756 5 6.99995C5 13.125 2.5 14.875 2.5 14.875H17.5C17.5 14.875 15 13.125 15 6.99995Z" stroke="#F16429" stroke-width="2" stroke-linecap="round" stroke-linejoin="round"/>
<path d="M11.442 18.375C11.2955 18.6402 11.0852 18.8603 10.8322 19.0133C10.5792 19.1664 10.2924 19.2469 10.0004 19.2469C9.7084 19.2469 9.42154 19.1664 9.16853 19.0133C8.91551 18.8603 8.70522 18.6402 8.55872 18.375" stroke="#F16429" stroke-width="2" stroke-linecap="round" stroke-linejoin="round"/>
</svg>
