<svg width="32" height="32" viewBox="0 0 32 32" fill="none" xmlns="http://www.w3.org/2000/svg">
<rect opacity="0.2" width="32" height="32" rx="16" fill="#F16429"/>
<path d="M15.885 15.7072C16.9438 15.7072 17.8607 15.3275 18.6099 14.5782C19.359 13.8291 19.7388 12.9125 19.7388 11.8535C19.7388 10.7949 19.359 9.87817 18.6097 9.12878C17.8605 8.37976 16.9437 8 15.885 8C14.8261 8 13.9094 8.37976 13.1603 9.1289C12.4111 9.87804 12.0312 10.7948 12.0312 11.8535C12.0312 12.9125 12.4111 13.8292 13.1604 14.5783C13.9097 15.3274 14.8264 15.7072 15.885 15.7072Z" fill="white"/>
<path d="M22.629 20.3011C22.6074 19.9894 22.5637 19.6493 22.4994 19.2901C22.4344 18.9283 22.3508 18.5863 22.2507 18.2737C22.1473 17.9506 22.0067 17.6315 21.8329 17.3257C21.6525 17.0083 21.4406 16.7319 21.2028 16.5045C20.9541 16.2666 20.6497 16.0753 20.2976 15.9358C19.9468 15.797 19.558 15.7267 19.1421 15.7267C18.9788 15.7267 18.8208 15.7937 18.5157 15.9923C18.328 16.1147 18.1084 16.2563 17.8633 16.413C17.6537 16.5465 17.3698 16.6716 17.019 16.7849C16.6769 16.8956 16.3295 16.9518 15.9866 16.9518C15.6437 16.9518 15.2964 16.8956 14.9539 16.7849C14.6035 16.6717 14.3196 16.5466 14.1102 16.4131C13.8674 16.2579 13.6477 16.1163 13.4572 15.9922C13.1525 15.7936 12.9944 15.7266 12.8311 15.7266C12.415 15.7266 12.0264 15.797 11.6757 15.9359C11.3239 16.0752 11.0193 16.2665 10.7704 16.5046C10.5327 16.7322 10.3207 17.0084 10.1405 17.3257C9.9668 17.6315 9.82617 17.9504 9.72266 18.2738C9.62268 18.5864 9.53906 18.9283 9.47412 19.2901C9.40979 19.6488 9.36609 19.989 9.34448 20.3015C9.32324 20.6076 9.3125 20.9254 9.3125 21.2463C9.3125 22.0815 9.578 22.7577 10.1016 23.2563C10.6187 23.7484 11.3029 23.998 12.1349 23.998H19.839C20.671 23.998 21.355 23.7485 21.8722 23.2563C22.3959 22.758 22.6614 22.0818 22.6614 21.2462C22.6613 20.9238 22.6504 20.6058 22.629 20.3011Z" fill="white"/>
</svg>
